<svg xmlns="http://www.w3.org/2000/svg" width="24" height="18" fill="none" viewBox="0 0 24 18"><rect width="24" height="18" fill="#E4E6F0"/><rect width="6240" height="4359" x="-3766" y="-1005" fill="#fff" rx="40"/><g clip-path="url(#clip0_2411_87286)"><rect width="5750" height="3622" x="-3486" y="-478" fill="#fff" rx="5"/><g filter="url(#filter0_d_2411_87286)"><rect width="1301" height="758" x="-536" y="-428" fill="#fff" rx="10"/><g filter="url(#filter1_d_2411_87286)"><g clip-path="url(#clip1_2411_87286)"><mask id="mask0_2411_87286" style="mask-type:luminance" width="25" height="18" x="0" y="0" maskUnits="userSpaceOnUse"><rect width="24.706" height="18" fill="#fff"/></mask><g mask="url(#mask0_2411_87286)"><path fill="#C51918" fill-rule="evenodd" d="M16.7478 0H24.4684V18H16.7478V0Z" clip-rule="evenodd"/><path fill="#2E42A5" fill-rule="evenodd" d="M-0.237488 0H9.02722V18H-0.237488V0Z" clip-rule="evenodd"/><path fill="#F7FCFF" fill-rule="evenodd" d="M7.48309 0H16.7478V18H7.48309V0Z" clip-rule="evenodd"/></g><rect width="24.706" height="18" fill="url(#paint0_linear_2411_87286)" style="mix-blend-mode:overlay"/></g><rect width="22.917" height="16.917" x=".542" y=".542" stroke="#000" stroke-opacity=".1" stroke-width="1.083" rx="1.625" style="mix-blend-mode:multiply"/></g><path fill="#E9EFF7" d="M74 51H-50V53H74V51Z" mask="url(#path-6-inside-1_2411_87286)"/><rect width="1302" height="759" x="-536.5" y="-428.5" stroke="#E9EFF7" rx="10.5"/></g></g><rect width="5749" height="3621" x="-3485.5" y="-477.5" stroke="#9747FF" stroke-dasharray="10 5" rx="4.5"/><defs><filter id="filter0_d_2411_87286" width="1379" height="836" x="-575" y="-443" color-interpolation-filters="sRGB" filterUnits="userSpaceOnUse"><feFlood flood-opacity="0" result="BackgroundImageFix"/><feColorMatrix in="SourceAlpha" result="hardAlpha" type="matrix" values="0 0 0 0 0 0 0 0 0 0 0 0 0 0 0 0 0 0 127 0"/><feMorphology in="SourceAlpha" operator="erode" radius="12" result="effect1_dropShadow_2411_87286"/><feOffset dy="24"/><feGaussianBlur stdDeviation="25"/><feColorMatrix type="matrix" values="0 0 0 0 0.176471 0 0 0 0 0.211765 0 0 0 0 0.262745 0 0 0 0.12 0"/><feBlend in2="BackgroundImageFix" mode="normal" result="effect1_dropShadow_2411_87286"/><feBlend in="SourceGraphic" in2="effect1_dropShadow_2411_87286" mode="normal" result="shape"/></filter><filter id="filter1_d_2411_87286" width="30.5" height="24.5" x="-3.25" y="-1.083" color-interpolation-filters="sRGB" filterUnits="userSpaceOnUse"><feFlood flood-opacity="0" result="BackgroundImageFix"/><feColorMatrix in="SourceAlpha" result="hardAlpha" type="matrix" values="0 0 0 0 0 0 0 0 0 0 0 0 0 0 0 0 0 0 127 0"/><feOffset dy="2.167"/><feGaussianBlur stdDeviation="1.625"/><feColorMatrix type="matrix" values="0 0 0 0 0 0 0 0 0 0 0 0 0 0 0 0 0 0 0.1 0"/><feBlend in2="BackgroundImageFix" mode="normal" result="effect1_dropShadow_2411_87286"/><feBlend in="SourceGraphic" in2="effect1_dropShadow_2411_87286" mode="normal" result="shape"/></filter><linearGradient id="paint0_linear_2411_87286" x1="12.353" x2="12.353" y1="0" y2="18" gradientUnits="userSpaceOnUse"><stop stop-color="#fff" stop-opacity=".7"/><stop offset="1" stop-opacity=".3"/></linearGradient><clipPath id="clip0_2411_87286"><rect width="5750" height="3622" x="-3486" y="-478" fill="#fff" rx="5"/></clipPath><clipPath id="clip1_2411_87286"><rect width="24" height="18" fill="#fff" rx="2.167"/></clipPath></defs></svg>