<svg xmlns="http://www.w3.org/2000/svg" width="24" height="18" fill="none" viewBox="0 0 24 18"><rect width="24" height="18" fill="#E4E6F0"/><rect width="6240" height="4359" x="-3766" y="-833" fill="#fff" rx="40"/><g clip-path="url(#clip0_2411_87286)"><rect width="5750" height="3622" x="-3486" y="-306" fill="#fff" rx="5"/><g filter="url(#filter0_d_2411_87286)"><rect width="1301" height="758" x="-536" y="-256" fill="#fff" rx="10"/><g filter="url(#filter1_d_2411_87286)"><g clip-path="url(#clip1_2411_87286)"><mask id="mask0_2411_87286" style="mask-type:luminance" width="25" height="18" x="0" y="0" maskUnits="userSpaceOnUse"><rect width="24.706" height="18" fill="#fff"/></mask><g mask="url(#mask0_2411_87286)"><path fill="#2E42A5" fill-rule="evenodd" d="M-0.237488 0V18H24.4684V0H-0.237488Z" clip-rule="evenodd"/><mask id="mask1_2411_87286" style="mask-type:luminance" width="26" height="18" x="-1" y="0" maskUnits="userSpaceOnUse"><path fill="#fff" fill-rule="evenodd" d="M-0.237488 0V18H24.4684V0H-0.237488Z" clip-rule="evenodd"/></mask><g mask="url(#mask1_2411_87286)"><rect width="13.412" height="10.385" fill="#2B409A"/><mask id="mask2_2411_87286" style="mask-type:luminance" width="14" height="11" x="0" y="0" maskUnits="userSpaceOnUse"><rect width="13.412" height="10.385" fill="#fff"/></mask><g mask="url(#mask2_2411_87286)"><path fill="#F7FCFF" d="M-1.78467 9.74947L1.27342 11.0524L13.7292 1.41616L15.3423 -0.519989L12.0721 -0.955458L6.99167 3.19706L2.90246 5.99489L-1.78467 9.74947Z"/><path fill="#F50100" d="M-1.36621 10.6625L0.191743 11.4186L14.7628 -0.699708H12.5753L-1.36621 10.6625Z"/><path fill="#F7FCFF" d="M15.2075 9.74947L12.1494 11.0524L-0.306405 1.41616L-1.91948 -0.519989L1.35071 -0.955458L6.43112 3.19706L10.5203 5.99489L15.2075 9.74947Z"/><path fill="#F50100" d="M15.1034 10.4047L13.5454 11.1608L7.34092 5.9723L5.50142 5.3926L-2.07441 -0.513296H0.11314L7.68471 5.25242L9.69588 5.94754L15.1034 10.4047Z"/><path fill="#F50100" fill-rule="evenodd" d="M7.47079 -0.00012207H5.92668V4.49988H-0.237732V5.99988H5.92668V10.4999H7.47079V5.99988H13.6593V4.49988H7.47079V-0.00012207Z" clip-rule="evenodd"/><path fill="#F7FCFF" fill-rule="evenodd" d="M4.76859 -1.12512H8.62889V3.37488H14.8174V7.12488H8.62889V11.6249H4.76859V7.12488H-1.39581V3.37488H4.76859V-1.12512ZM5.92668 4.49988H-0.237725V5.99988H5.92668V10.4999H7.4708V5.99988H13.6593V4.49988H7.4708V-0.00012207H5.92668V4.49988Z" clip-rule="evenodd"/></g></g><g clip-path="url(#clip2_2411_87286)"><path fill="#F7FCFF" d="M6.52217 15.4122L5.52985 16.3243L5.62812 14.984L4.29245 14.781L5.40731 14.0218L4.73407 12.8566L6.02601 13.2501L6.52217 12.0001L7.01833 13.2501L8.31026 12.8566L7.63703 14.0218L8.75188 14.781L7.41621 14.984L7.51448 16.3243L6.52217 15.4122Z"/><path fill="#F7FCFF" d="M16.4328 9.72541L15.7712 10.3335L15.8368 9.43992L14.9463 9.30462L15.6895 8.79844L15.2407 8.02166L16.102 8.28401L16.4328 7.45068L16.7636 8.28401L17.6249 8.02166L17.176 8.79844L17.9193 9.30462L17.0288 9.43992L17.0943 10.3335L16.4328 9.72541Z"/><path fill="#F7FCFF" d="M17.9574 3.65949L17.2959 4.26755L17.3614 3.37401L16.471 3.2387L17.2142 2.73252L16.7654 1.95574L17.6267 2.2181L17.9574 1.38477L18.2882 2.2181L19.1495 1.95574L18.7007 2.73252L19.4439 3.2387L18.5535 3.37401L18.619 4.26755L17.9574 3.65949Z"/><path fill="#F7FCFF" d="M21.7692 6.69245L21.1077 7.30051L21.1732 6.40696L20.2827 6.27166L21.026 5.76548L20.5771 4.9887L21.4384 5.25106L21.7692 4.41772L22.1 5.25106L22.9613 4.9887L22.5125 5.76548L23.2557 6.27166L22.3652 6.40696L22.4308 7.30051L21.7692 6.69245Z"/><path fill="#F7FCFF" d="M18.7198 16.5496L18.0583 17.1577L18.1238 16.2641L17.2334 16.1288L17.9766 15.6227L17.5278 14.8459L18.3891 15.1082L18.7198 14.2749L19.0506 15.1082L19.9119 14.8459L19.4631 15.6227L20.2063 16.1288L19.3159 16.2641L19.3814 17.1577L18.7198 16.5496Z"/><path fill="#F7FCFF" d="M21.388 10.6732L20.7159 11.0247L20.8443 10.2803L20.3005 9.75306L21.052 9.64445L21.388 8.96716L21.7241 9.64445L22.4756 9.75306L21.9318 10.2803L22.0602 11.0247L21.388 10.6732Z"/></g></g><rect width="24.706" height="18" fill="url(#paint0_linear_2411_87286)" style="mix-blend-mode:overlay"/></g><rect width="22.917" height="16.917" x=".542" y=".542" stroke="#000" stroke-opacity=".1" stroke-width="1.083" rx="1.625" style="mix-blend-mode:multiply"/></g><path fill="#E9EFF7" d="M74 51H-50V53H74V51Z" mask="url(#path-6-inside-1_2411_87286)"/><rect width="1302" height="759" x="-536.5" y="-256.5" stroke="#E9EFF7" rx="10.5"/></g></g><rect width="5749" height="3621" x="-3485.5" y="-305.5" stroke="#9747FF" stroke-dasharray="10 5" rx="4.5"/><defs><filter id="filter0_d_2411_87286" width="1379" height="836" x="-575" y="-271" color-interpolation-filters="sRGB" filterUnits="userSpaceOnUse"><feFlood flood-opacity="0" result="BackgroundImageFix"/><feColorMatrix in="SourceAlpha" result="hardAlpha" type="matrix" values="0 0 0 0 0 0 0 0 0 0 0 0 0 0 0 0 0 0 127 0"/><feMorphology in="SourceAlpha" operator="erode" radius="12" result="effect1_dropShadow_2411_87286"/><feOffset dy="24"/><feGaussianBlur stdDeviation="25"/><feColorMatrix type="matrix" values="0 0 0 0 0.176471 0 0 0 0 0.211765 0 0 0 0 0.262745 0 0 0 0.12 0"/><feBlend in2="BackgroundImageFix" mode="normal" result="effect1_dropShadow_2411_87286"/><feBlend in="SourceGraphic" in2="effect1_dropShadow_2411_87286" mode="normal" result="shape"/></filter><filter id="filter1_d_2411_87286" width="30.5" height="24.5" x="-3.25" y="-1.083" color-interpolation-filters="sRGB" filterUnits="userSpaceOnUse"><feFlood flood-opacity="0" result="BackgroundImageFix"/><feColorMatrix in="SourceAlpha" result="hardAlpha" type="matrix" values="0 0 0 0 0 0 0 0 0 0 0 0 0 0 0 0 0 0 127 0"/><feOffset dy="2.167"/><feGaussianBlur stdDeviation="1.625"/><feColorMatrix type="matrix" values="0 0 0 0 0 0 0 0 0 0 0 0 0 0 0 0 0 0 0.1 0"/><feBlend in2="BackgroundImageFix" mode="normal" result="effect1_dropShadow_2411_87286"/><feBlend in="SourceGraphic" in2="effect1_dropShadow_2411_87286" mode="normal" result="shape"/></filter><linearGradient id="paint0_linear_2411_87286" x1="12.353" x2="12.353" y1="0" y2="18" gradientUnits="userSpaceOnUse"><stop stop-color="#fff" stop-opacity=".7"/><stop offset="1" stop-opacity=".3"/></linearGradient><clipPath id="clip0_2411_87286"><rect width="5750" height="3622" x="-3486" y="-306" fill="#fff" rx="5"/></clipPath><clipPath id="clip1_2411_87286"><rect width="24" height="18" fill="#fff" rx="2.167"/></clipPath><clipPath id="clip2_2411_87286"><rect width="19.059" height="15.923" fill="#fff" transform="translate(4.23529 1.38464)"/></clipPath></defs></svg>